<svg width="100%" height="100%" overflow="visible" style="display: block;" viewBox="0 0 16 16" fill="none" xmlns="http://www.w3.org/2000/svg">
<g id="SVG">
<path id="Vector" d="M14.3571 8.59821L8.43036 1.76786C8.37678 1.70605 8.31055 1.65648 8.23614 1.62251C8.16174 1.58854 8.0809 1.57096 7.99911 1.57096C7.91731 1.57096 7.83647 1.58854 7.76207 1.62251C7.68766 1.65648 7.62143 1.70605 7.56786 1.76786L1.64286 8.59821C1.62495 8.6188 1.61334 8.6441 1.60941 8.6711C1.60548 8.6981 1.60939 8.72566 1.62068 8.7505C1.63197 8.77534 1.65017 8.79641 1.67309 8.8112C1.69602 8.82599 1.72272 8.83388 1.75 8.83393H3.19643C3.27857 8.83393 3.35714 8.79821 3.4125 8.73571L7.32143 4.23036V14.2857C7.32143 14.3643 7.38571 14.4286 7.46428 14.4286H8.53571C8.61428 14.4286 8.67857 14.3643 8.67857 14.2857V4.23036L12.5875 8.73571C12.6411 8.79821 12.7196 8.83393 12.8036 8.83393H14.25C14.3714 8.83393 14.4375 8.69107 14.3571 8.59821Z" fill="var(--fill-0, white)"/>
</g>
</svg>
