<svg width="100%" height="100%" overflow="visible" style="display: block;" viewBox="0 0 13.99 13.99" fill="none" xmlns="http://www.w3.org/2000/svg">
<g id="SVG">
<path id="Vector" fill-rule="evenodd" clip-rule="evenodd" d="M11.4899 1.59749C11.4902 1.59749 11.4905 1.59781 11.4911 1.59843L12.3919 2.49935C12.3925 2.49982 12.3927 2.50013 12.3928 2.5006C12.3929 2.50091 12.3929 2.50123 12.3928 2.50154C12.3928 2.502 12.3925 2.50232 12.3919 2.50294L7.8998 6.99504L12.3919 11.4871C12.3925 11.4878 12.3927 11.4881 12.3928 11.4885C12.3929 11.4889 12.3929 11.4893 12.3928 11.4896C12.3928 11.49 12.3925 11.4903 12.3919 11.4909L11.491 12.3917C11.4905 12.3923 11.4902 12.3924 11.4899 12.3926C11.4895 12.3927 11.4891 12.3927 11.4888 12.3926C11.4883 12.3926 11.488 12.3923 11.4874 12.3917L6.99529 7.89955L2.50318 12.3917C2.50256 12.3923 2.50225 12.3924 2.50178 12.3926C2.50142 12.3927 2.50104 12.3927 2.50069 12.3926C2.50037 12.3926 2.50006 12.3923 2.49944 12.3917L1.59867 11.4907C1.59805 11.4903 1.59789 11.49 1.59774 11.4896C1.59763 11.4893 1.59763 11.4889 1.59774 11.4885C1.59774 11.4881 1.59805 11.4878 1.59867 11.4871L6.09078 6.99504L1.59867 2.50294C1.59805 2.50232 1.59789 2.502 1.59774 2.50154C1.59763 2.50118 1.59763 2.5008 1.59774 2.50044C1.59774 2.50013 1.59805 2.49982 1.59867 2.49919L2.49959 1.59843C2.50006 1.59781 2.50037 1.59765 2.50069 1.59749C2.50104 1.59738 2.50142 1.59738 2.50178 1.59749C2.50225 1.59749 2.50256 1.59781 2.50318 1.59843L6.99529 6.09053L11.4874 1.59843C11.488 1.59781 11.4883 1.59765 11.4888 1.59749C11.4891 1.59738 11.4895 1.59738 11.4899 1.59749Z" fill="var(--fill-0, #262626)"/>
</g>
</svg>
