<svg width="100%" height="100%" overflow="visible" style="display: block;" viewBox="0 0 13.99 13.99" fill="none" xmlns="http://www.w3.org/2000/svg">
<g id="Img">
<path id="Vector" d="M6.35088 9.64902L4.01921 4.98569C3.8216 4.59047 3.17398 4.59047 2.97637 4.98569L0.644705 9.64902C0.575522 9.78731 0.564108 9.94742 0.612973 10.0941C0.661838 10.2408 0.76698 10.3621 0.905269 10.4313C1.04356 10.5005 1.20367 10.5119 1.35037 10.463C1.49708 10.4142 1.61836 10.309 1.68754 10.1707L2.10899 9.32667H4.88601L5.30804 10.1701C5.34212 10.2387 5.38939 10.2999 5.44716 10.3501C5.50492 10.4004 5.57204 10.4388 5.64467 10.463C5.71729 10.4873 5.79399 10.497 5.87036 10.4915C5.94673 10.4861 6.02128 10.4656 6.08973 10.4313C6.37769 10.2867 6.49486 9.93698 6.35088 9.64902ZM2.69191 8.16083L3.4975 6.54965L4.30309 8.16083H2.69191ZM12.8242 10.4925H9.32667C9.2185 10.4923 9.11253 10.462 9.02057 10.405C8.92862 10.3481 8.85431 10.2667 8.80593 10.17C8.75756 10.0732 8.73703 9.96492 8.74664 9.85718C8.75624 9.74944 8.79561 9.64649 8.86033 9.55983L11.6583 5.82917H9.32667C9.17207 5.82917 9.0238 5.76775 8.91448 5.65843C8.80516 5.54912 8.74375 5.40085 8.74375 5.24625C8.74375 5.09165 8.80516 4.94338 8.91448 4.83407C9.0238 4.72475 9.17207 4.66333 9.32667 4.66333H12.8242C12.9323 4.66355 13.0383 4.69383 13.1303 4.75078C13.2222 4.80774 13.2965 4.88914 13.3449 4.98588C13.3933 5.08263 13.4138 5.19092 13.4042 5.29865C13.3946 5.40639 13.3552 5.50934 13.2905 5.596L10.4925 9.32667H12.8242C12.9788 9.32667 13.127 9.38808 13.2364 9.4974C13.3457 9.60672 13.4071 9.75498 13.4071 9.90958C13.4071 10.0642 13.3457 10.2125 13.2364 10.3218C13.127 10.4311 12.9788 10.4925 12.8242 10.4925ZM8.16083 8.16083H6.995C6.8404 8.16083 6.69213 8.09942 6.58282 7.9901C6.4735 7.88078 6.41208 7.73252 6.41208 7.57792C6.41208 7.42332 6.4735 7.27505 6.58282 7.16573C6.69213 7.05641 6.8404 6.995 6.995 6.995H8.16083C8.31543 6.995 8.4637 7.05641 8.57302 7.16573C8.68234 7.27505 8.74375 7.42332 8.74375 7.57792C8.74375 7.73252 8.68234 7.88078 8.57302 7.9901C8.4637 8.09942 8.31543 8.16083 8.16083 8.16083Z" fill="var(--fill-0, #8C8C8C)"/>
</g>
</svg>
