<svg width="100%" height="100%" overflow="visible" style="display: block;" viewBox="0 0 16 16" fill="none" xmlns="http://www.w3.org/2000/svg">
<g id="SVG">
<path id="Vector" d="M11.3393 5.16071H10.5018C10.3196 5.16071 10.1464 5.24821 10.0393 5.39821L7.23214 9.29107L5.96071 7.52679C5.85357 7.37857 5.68214 7.28929 5.49821 7.28929H4.66071C4.54464 7.28929 4.47679 7.42143 4.54464 7.51607L6.76964 10.6018C6.82221 10.6751 6.8915 10.7349 6.97177 10.7762C7.05205 10.8174 7.141 10.8389 7.23125 10.8389C7.3215 10.8389 7.41045 10.8174 7.49073 10.7762C7.571 10.7349 7.64029 10.6751 7.69286 10.6018L11.4536 5.3875C11.5232 5.29286 11.4554 5.16071 11.3393 5.16071Z" fill="var(--fill-0, #85A5FF)"/>
<path id="Vector_2" d="M8 0C3.58214 0 0 3.58214 0 8C0 12.4179 3.58214 16 8 16C12.4179 16 16 12.4179 16 8C16 3.58214 12.4179 0 8 0ZM8 14.6429C4.33214 14.6429 1.35714 11.6679 1.35714 8C1.35714 4.33214 4.33214 1.35714 8 1.35714C11.6679 1.35714 14.6429 4.33214 14.6429 8C14.6429 11.6679 11.6679 14.6429 8 14.6429Z" fill="var(--fill-0, #85A5FF)"/>
</g>
</svg>
