<svg width="100%" height="100%" overflow="visible" style="display: block;" viewBox="0 0 20.9937 20.9937" fill="none" xmlns="http://www.w3.org/2000/svg">
<g id="SVG">
<path id="Vector" d="M8.98918 3.45029C8.98918 3.79828 9.12742 4.13202 9.37348 4.37809C9.61955 4.62416 9.95329 4.7624 10.3013 4.7624C10.6493 4.7624 10.983 4.62416 11.2291 4.37809C11.4752 4.13202 11.6134 3.79828 11.6134 3.45029C11.6134 3.10229 11.4752 2.76855 11.2291 2.52249C10.983 2.27642 10.6493 2.13818 10.3013 2.13818C9.95329 2.13818 9.61955 2.27642 9.37348 2.52249C9.12742 2.76855 8.98918 3.10229 8.98918 3.45029ZM8.98918 10.0108C8.98918 10.3588 9.12742 10.6926 9.37348 10.9386C9.61955 11.1847 9.95329 11.3229 10.3013 11.3229C10.6493 11.3229 10.983 11.1847 11.2291 10.9386C11.4752 10.6926 11.6134 10.3588 11.6134 10.0108C11.6134 9.66284 11.4752 9.3291 11.2291 9.08303C10.983 8.83696 10.6493 8.69872 10.3013 8.69872C9.95329 8.69872 9.61955 8.83696 9.37348 9.08303C9.12742 9.3291 8.98918 9.66284 8.98918 10.0108ZM8.98918 16.5714C8.98918 16.9194 9.12742 17.2531 9.37348 17.4992C9.61955 17.7452 9.95329 17.8835 10.3013 17.8835C10.6493 17.8835 10.983 17.7452 11.2291 17.4992C11.4752 17.2531 11.6134 16.9194 11.6134 16.5714C11.6134 16.2234 11.4752 15.8896 11.2291 15.6436C10.983 15.3975 10.6493 15.2593 10.3013 15.2593C9.95329 15.2593 9.61955 15.3975 9.37348 15.6436C9.12742 15.8896 8.98918 16.2234 8.98918 16.5714Z" fill="var(--fill-0, #262626)"/>
</g>
</svg>
