<svg width="100%" height="100%" overflow="visible" style="display: block;" viewBox="0 0 13.99 13.99" fill="none" xmlns="http://www.w3.org/2000/svg">
<g id="Img - pie-chart &#226;&#134;&#146; SVG">
<path id="Vector" d="M12.4771 7.09653H6.89355V1.51302C6.89355 1.44432 6.83734 1.38811 6.76864 1.38811H6.36268C5.54339 1.38727 4.73201 1.54822 3.97507 1.86171C3.21814 2.1752 2.53055 2.63507 1.95177 3.21493C1.38191 3.78302 0.927973 4.45651 0.615222 5.19789C0.290454 5.96765 0.124947 6.78425 0.124947 7.6274C0.124947 8.47055 0.290454 9.28559 0.615222 10.0554C0.92906 10.797 1.37874 11.4653 1.95177 12.0383C2.52479 12.6113 3.19151 13.061 3.93472 13.3749C4.70314 13.7009 5.52953 13.8681 6.36424 13.8667C7.18352 13.8675 7.99491 13.7066 8.75184 13.3931C9.50878 13.0796 10.1964 12.6197 10.7751 12.0399C11.3482 11.4668 11.7979 10.8001 12.1117 10.0569C12.4377 9.2885 12.605 8.46211 12.6035 7.6274V7.22144C12.602 7.15274 12.5458 7.09653 12.4771 7.09653ZM13.8495 6.22996L13.8089 5.78965C13.6762 4.35318 13.0392 2.9979 12.0118 1.97519C10.9853 0.949618 9.63274 0.315022 8.18793 0.181161L7.74606 0.140565C7.67268 0.13432 7.61022 0.19053 7.61022 0.263915V6.25495C7.61022 6.32365 7.66643 6.37986 7.73513 6.37986L13.7246 6.36424C13.798 6.36268 13.8558 6.30179 13.8495 6.22996Z" fill="var(--fill-0, #BFBFBF)"/>
</g>
</svg>
