<svg width="100%" height="100%" overflow="visible" style="display: block;" viewBox="0 0 13.99 13.99" fill="none" xmlns="http://www.w3.org/2000/svg">
<g id="SVG - spreadsheet">
<path id="Vector" d="M12.2415 2.91461C12.2415 2.27166 11.7186 1.74878 11.0757 1.74878H2.91486C2.2719 1.74878 1.74902 2.27166 1.74902 2.91461V11.0754C1.74902 11.7184 2.2719 12.2413 2.91486 12.2413H11.0757C11.7186 12.2413 12.2415 11.7184 12.2415 11.0754V2.91461ZM2.91486 11.0754V2.91461H11.0757L11.0769 11.0754H2.91486Z" fill="var(--fill-0, #65676C)"/>
<path id="Vector_2" d="M4.08008 4.08032H5.24475V5.24616H4.08008V4.08032ZM6.41174 4.08032H9.90924V5.24616H6.41174V4.08032ZM4.08008 6.41199H5.24475V7.57782H4.08008V6.41199ZM6.41174 6.41199H9.90924V7.57782H6.41174V6.41199ZM4.08008 8.74366H5.24475V9.90949H4.08008V8.74366ZM6.41174 8.74366H9.90924V9.90949H6.41174V8.74366Z" fill="var(--fill-0, #65676C)"/>
</g>
</svg>
