<svg width="100%" height="100%" overflow="visible" style="display: block;" viewBox="0 0 21.0088 21.0088" fill="none" xmlns="http://www.w3.org/2000/svg">
<g id="Vector">
<path d="M14.8185 9.75516H11.2545V6.19118C11.2545 6.08801 11.1701 6.0036 11.0669 6.0036H9.94146C9.83829 6.0036 9.75388 6.08801 9.75388 6.19118V9.75516H6.1899C6.08673 9.75516 6.00232 9.83957 6.00232 9.94274V11.0682C6.00232 11.1714 6.08673 11.2558 6.1899 11.2558H9.75388V14.8198C9.75388 14.9229 9.83829 15.0074 9.94146 15.0074H11.0669C11.1701 15.0074 11.2545 14.9229 11.2545 14.8198V11.2558H14.8185C14.9217 11.2558 15.0061 11.1714 15.0061 11.0682V9.94274C15.0061 9.83957 14.9217 9.75516 14.8185 9.75516Z" fill="#262626"/>
<path d="M10.5044 0C4.70352 0 0 4.70352 0 10.5044C0 16.3052 4.70352 21.0088 10.5044 21.0088C16.3052 21.0088 21.0088 16.3052 21.0088 10.5044C21.0088 4.70352 16.3052 0 10.5044 0ZM10.5044 19.2268C5.68831 19.2268 1.78199 15.3204 1.78199 10.5044C1.78199 5.68831 5.68831 1.78199 10.5044 1.78199C15.3204 1.78199 19.2268 5.68831 19.2268 10.5044C19.2268 15.3204 15.3204 19.2268 10.5044 19.2268Z" fill="#262626"/>
</g>
</svg>
