<svg width="100%" height="100%" overflow="visible" style="display: block;" viewBox="0 0 13.99 13.99" fill="none" xmlns="http://www.w3.org/2000/svg">
<g id="Img">
<path id="Vector" d="M2.33192 10.4925C2.17732 10.4925 2.02905 10.4311 1.91973 10.3218C1.81041 10.2125 1.749 10.0642 1.749 9.9096V6.18943L1.42665 6.35031C1.3581 6.38524 1.28332 6.40625 1.20661 6.41213C1.1299 6.41802 1.05279 6.40866 0.979717 6.3846C0.906644 6.36054 0.839056 6.32225 0.78085 6.27195C0.722645 6.22164 0.674973 6.16031 0.640583 6.0915C0.606194 6.02268 0.585767 5.94773 0.58048 5.87098C0.575193 5.79423 0.585151 5.7172 0.609779 5.64431C0.634408 5.57143 0.67322 5.50414 0.723978 5.44633C0.774735 5.38852 0.836435 5.34133 0.905519 5.30747L2.07135 4.72456C2.16021 4.67979 2.25906 4.65857 2.35846 4.66291C2.45786 4.66725 2.55449 4.69701 2.6391 4.74935C2.72372 4.80168 2.7935 4.87485 2.84178 4.96185C2.89005 5.04885 2.9152 5.14677 2.91483 5.24627V9.9096C2.91483 10.0642 2.85342 10.2125 2.7441 10.3218C2.63478 10.4311 2.48651 10.4925 2.33192 10.4925ZM7.57817 10.4925H4.66358C4.54856 10.4919 4.43626 10.4574 4.34078 10.3933C4.2453 10.3291 4.17089 10.2382 4.12688 10.1319C4.08286 10.0257 4.0712 9.90877 4.09337 9.7959C4.11553 9.68303 4.17053 9.57921 4.25146 9.49748L6.58313 7.16581C6.73119 7.01775 6.8128 6.82131 6.8128 6.61204C6.8128 6.40336 6.73119 6.20691 6.58313 6.05885C6.28701 5.76273 5.77287 5.76273 5.47559 6.05944C5.4027 6.13178 5.34492 6.21789 5.3056 6.31275C5.26627 6.40762 5.24618 6.50935 5.2465 6.61204C5.2465 6.76664 5.18508 6.91491 5.07577 7.02423C4.96645 7.13354 4.81818 7.19496 4.66358 7.19496C4.50898 7.19496 4.36072 7.13354 4.2514 7.02423C4.14208 6.91491 4.08067 6.76664 4.08067 6.61204C4.08067 6.09091 4.28352 5.60185 4.65192 5.23403C5.38931 4.4978 6.67115 4.4978 7.40737 5.23461C7.77577 5.60243 7.97805 6.09208 7.97805 6.61204C7.97805 7.13259 7.77519 7.62224 7.40737 7.99006L6.07074 9.32668H7.57817C7.73277 9.32668 7.88103 9.3881 7.99035 9.49742C8.09967 9.60673 8.16108 9.755 8.16108 9.9096C8.16108 10.0642 8.09967 10.2125 7.99035 10.3218C7.88103 10.4311 7.73277 10.4925 7.57817 10.4925ZM12.2153 7.21478C12.4205 6.9411 12.532 6.60847 12.533 6.26637C12.5325 5.84137 12.3635 5.4339 12.0629 5.13338C11.7624 4.83285 11.3549 4.66381 10.9299 4.66335C10.6362 4.66277 10.3481 4.74321 10.0971 4.89583C9.84617 5.04845 9.64219 5.26734 9.50762 5.5284C9.47241 5.59638 9.45093 5.67062 9.44441 5.7469C9.43789 5.82318 9.44646 5.89999 9.46963 5.97296C9.49279 6.04592 9.53011 6.11361 9.57943 6.17215C9.62876 6.2307 9.68913 6.27896 9.75711 6.31417C9.82509 6.34938 9.89933 6.37086 9.97561 6.37738C10.0519 6.3839 10.1287 6.37533 10.2017 6.35216C10.2746 6.329 10.3423 6.29169 10.4009 6.24236C10.4594 6.19303 10.5077 6.13266 10.5429 6.06468C10.5787 5.99584 10.6322 5.93776 10.6978 5.89642C10.7635 5.85507 10.839 5.83195 10.9165 5.82942C10.9941 5.82689 11.0709 5.84504 11.1391 5.88202C11.2073 5.919 11.2645 5.97347 11.3047 6.03984C11.3449 6.1062 11.3667 6.18207 11.3679 6.25966C11.3691 6.33725 11.3496 6.41375 11.3115 6.48132C11.2733 6.54889 11.2179 6.60509 11.1508 6.64414C11.0838 6.6832 11.0075 6.70371 10.9299 6.70356C10.7753 6.70356 10.6271 6.76497 10.5178 6.87429C10.4084 6.98361 10.347 7.13188 10.347 7.28648C10.347 7.44107 10.4084 7.58934 10.5178 7.69866C10.6271 7.80798 10.7753 7.86939 10.9299 7.86939C11.3316 7.86939 11.6586 8.19641 11.6586 8.59804C11.6586 8.99967 11.3316 9.32668 10.9299 9.32668C10.5283 9.32668 10.2013 8.99967 10.2013 8.59804C10.2013 8.44344 10.1399 8.29517 10.0306 8.18585C9.92124 8.07654 9.77297 8.01512 9.61837 8.01512C9.46378 8.01512 9.31551 8.07654 9.20619 8.18585C9.09687 8.29517 9.03546 8.44344 9.03546 8.59804C9.03546 9.64262 9.88535 10.4925 10.9299 10.4925C11.9745 10.4925 12.8244 9.64262 12.8244 8.59804C12.8239 8.3379 12.7696 8.08068 12.6647 7.8426C12.5599 7.60452 12.4069 7.39075 12.2153 7.21478Z" fill="var(--fill-0, #8C8C8C)"/>
</g>
</svg>
