<svg width="100%" height="100%" overflow="visible" style="display: block;" viewBox="0 0 13.99 13.99" fill="none" xmlns="http://www.w3.org/2000/svg">
<g id="SVG">
<path id="Vector" d="M6.12063 2.60751C6.12063 2.83941 6.21275 3.06181 6.37672 3.22579C6.5407 3.38977 6.7631 3.48189 6.995 3.48189C7.2269 3.48189 7.4493 3.38977 7.61328 3.22579C7.77725 3.06181 7.86938 2.83941 7.86938 2.60751C7.86938 2.37561 7.77725 2.15321 7.61328 1.98923C7.4493 1.82526 7.2269 1.73314 6.995 1.73314C6.7631 1.73314 6.5407 1.82526 6.37672 1.98923C6.21275 2.15321 6.12063 2.37561 6.12063 2.60751ZM6.12063 6.97939C6.12063 7.21129 6.21275 7.43369 6.37672 7.59766C6.5407 7.76164 6.7631 7.85376 6.995 7.85376C7.2269 7.85376 7.4493 7.76164 7.61328 7.59766C7.77725 7.43369 7.86938 7.21129 7.86938 6.97939C7.86938 6.74749 7.77725 6.52509 7.61328 6.36111C7.4493 6.19713 7.2269 6.10501 6.995 6.10501C6.7631 6.10501 6.5407 6.19713 6.37672 6.36111C6.21275 6.52509 6.12063 6.74749 6.12063 6.97939ZM6.12063 11.3513C6.12063 11.5832 6.21275 11.8056 6.37672 11.9695C6.5407 12.1335 6.7631 12.2256 6.995 12.2256C7.2269 12.2256 7.4493 12.1335 7.61328 11.9695C7.77725 11.8056 7.86938 11.5832 7.86938 11.3513C7.86938 11.1194 7.77725 10.897 7.61328 10.733C7.4493 10.569 7.2269 10.4769 6.995 10.4769C6.7631 10.4769 6.5407 10.569 6.37672 10.733C6.21275 10.897 6.12063 11.1194 6.12063 11.3513Z" fill="var(--fill-0, #262626)"/>
</g>
</svg>
