<svg width="100%" height="100%" overflow="visible" style="display: block;" viewBox="0 0 14.2857 14.2857" fill="none" xmlns="http://www.w3.org/2000/svg">
<path id="Vector" d="M13.7143 0H0.571429C0.255357 0 0 0.255357 0 0.571429V13.7143C0 14.0304 0.255357 14.2857 0.571429 14.2857H13.7143C14.0304 14.2857 14.2857 14.0304 14.2857 13.7143V0.571429C14.2857 0.255357 14.0304 0 13.7143 0ZM13 13H1.28571V1.28571H13V13ZM6.78571 5.14286H10.0714C10.15 5.14286 10.2143 5.07857 10.2143 5V4.14286C10.2143 4.06429 10.15 4 10.0714 4H6.78571C6.70714 4 6.64286 4.06429 6.64286 4.14286V5C6.64286 5.07857 6.70714 5.14286 6.78571 5.14286ZM6.78571 7.71429H10.0714C10.15 7.71429 10.2143 7.65 10.2143 7.57143V6.71429C10.2143 6.63571 10.15 6.57143 10.0714 6.57143H6.78571C6.70714 6.57143 6.64286 6.63571 6.64286 6.71429V7.57143C6.64286 7.65 6.70714 7.71429 6.78571 7.71429ZM6.78571 10.2857H10.0714C10.15 10.2857 10.2143 10.2214 10.2143 10.1429V9.28571C10.2143 9.20714 10.15 9.14286 10.0714 9.14286H6.78571C6.70714 9.14286 6.64286 9.20714 6.64286 9.28571V10.1429C6.64286 10.2214 6.70714 10.2857 6.78571 10.2857ZM4.07143 4.57143C4.07143 4.76087 4.14668 4.94255 4.28064 5.07651C4.41459 5.21046 4.59627 5.28571 4.78571 5.28571C4.97515 5.28571 5.15684 5.21046 5.29079 5.07651C5.42475 4.94255 5.5 4.76087 5.5 4.57143C5.5 4.38199 5.42475 4.20031 5.29079 4.06635C5.15684 3.9324 4.97515 3.85714 4.78571 3.85714C4.59627 3.85714 4.41459 3.9324 4.28064 4.06635C4.14668 4.20031 4.07143 4.38199 4.07143 4.57143V4.57143ZM4.07143 7.14286C4.07143 7.3323 4.14668 7.51398 4.28064 7.64793C4.41459 7.78189 4.59627 7.85714 4.78571 7.85714C4.97515 7.85714 5.15684 7.78189 5.29079 7.64793C5.42475 7.51398 5.5 7.3323 5.5 7.14286C5.5 6.95342 5.42475 6.77174 5.29079 6.63778C5.15684 6.50383 4.97515 6.42857 4.78571 6.42857C4.59627 6.42857 4.41459 6.50383 4.28064 6.63778C4.14668 6.77174 4.07143 6.95342 4.07143 7.14286ZM4.07143 9.71429C4.07143 9.90373 4.14668 10.0854 4.28064 10.2194C4.41459 10.3533 4.59627 10.4286 4.78571 10.4286C4.97515 10.4286 5.15684 10.3533 5.29079 10.2194C5.42475 10.0854 5.5 9.90373 5.5 9.71429C5.5 9.52485 5.42475 9.34316 5.29079 9.20921C5.15684 9.07525 4.97515 9 4.78571 9C4.59627 9 4.41459 9.07525 4.28064 9.20921C4.14668 9.34316 4.07143 9.52485 4.07143 9.71429V9.71429Z" fill="var(--fill-0, #8C8C8C)"/>
</svg>
