<svg width="100%" height="100%" overflow="visible" style="display: block;" viewBox="0 0 20.4545 18" fill="none" xmlns="http://www.w3.org/2000/svg">
<path id="Vector" d="M7.56818 7.21023H19.8409C19.9534 7.21023 20.0455 7.11818 20.0455 7.00568V5.57386C20.0455 5.46136 19.9534 5.36932 19.8409 5.36932H7.56818C7.45568 5.36932 7.36364 5.46136 7.36364 5.57386V7.00568C7.36364 7.11818 7.45568 7.21023 7.56818 7.21023ZM7.36364 12.4261C7.36364 12.5386 7.45568 12.6307 7.56818 12.6307H19.8409C19.9534 12.6307 20.0455 12.5386 20.0455 12.4261V10.9943C20.0455 10.8818 19.9534 10.7898 19.8409 10.7898H7.56818C7.45568 10.7898 7.36364 10.8818 7.36364 10.9943V12.4261ZM20.25 0H0.204545C0.0920455 0 0 0.0920455 0 0.204545V1.63636C0 1.74886 0.0920455 1.84091 0.204545 1.84091H20.25C20.3625 1.84091 20.4545 1.74886 20.4545 1.63636V0.204545C20.4545 0.0920455 20.3625 0 20.25 0ZM20.25 16.1591H0.204545C0.0920455 16.1591 0 16.2511 0 16.3636V17.7955C0 17.908 0.0920455 18 0.204545 18H20.25C20.3625 18 20.4545 17.908 20.4545 17.7955V16.3636C20.4545 16.2511 20.3625 16.1591 20.25 16.1591ZM0.777273 12.3264L4.77358 9.17898C4.80049 9.15783 4.82224 9.13084 4.8372 9.10006C4.85216 9.06928 4.85993 9.0355 4.85993 9.00128C4.85993 8.96706 4.85216 8.93328 4.8372 8.9025C4.82224 8.87171 4.80049 8.84473 4.77358 8.82358L0.777273 5.67358C0.628977 5.55597 0.409091 5.6608 0.409091 5.85V12.1474C0.409077 12.1901 0.42108 12.232 0.443728 12.2682C0.466376 12.3044 0.498755 12.3335 0.537162 12.3522C0.575569 12.3708 0.618454 12.3783 0.660915 12.3738C0.703376 12.3692 0.743699 12.3528 0.777273 12.3264V12.3264Z" fill="var(--fill-0, #262626)"/>
</svg>
