<svg width="100%" height="100%" overflow="visible" style="display: block;" viewBox="0 0 10.75 11.25" fill="none" xmlns="http://www.w3.org/2000/svg">
<path id="Union" d="M5.84338 0H4.90588C4.82255 0 4.78088 0.0416667 4.78088 0.125V5.03125H0.125C0.0416667 5.03125 0 5.07292 0 5.15625V6.09375C0 6.17708 0.0416667 6.21875 0.125 6.21875H4.78088V11.125C4.78088 11.2083 4.82255 11.25 4.90588 11.25H5.84338C5.92672 11.25 5.96838 11.2083 5.96838 11.125V6.21875H10.625C10.7083 6.21875 10.75 6.17708 10.75 6.09375V5.15625C10.75 5.07292 10.7083 5.03125 10.625 5.03125H5.96838V0.125C5.96838 0.0416667 5.92672 0 5.84338 0Z" fill="var(--fill-0, #262626)"/>
</svg>
