<svg width="100%" height="100%" overflow="visible" style="display: block;" viewBox="0 0 48 48" fill="none" xmlns="http://www.w3.org/2000/svg">
<g id="SVG">
<path id="Vector" d="M25.2837 12.5277C26.0446 14.3792 25.6163 16.2854 24.3269 16.7856C23.0373 17.2856 21.375 16.1899 20.6141 14.3384C19.8531 12.4869 20.2816 10.5806 21.571 10.0806C22.8605 9.58058 24.5227 10.6762 25.2837 12.5277Z" fill="var(--fill-0, #65676C)"/>
<path id="Vector_2" d="M46.7997 35.1232C47.5155 35.9459 48.096 36.8344 47.9867 37.896C47.8774 38.9578 46.8938 39.3824 46.2379 39.4886C45.5821 39.5947 32.6842 41.2934 31.2634 41.3997C30.0059 41.4936 29.7755 41.3381 29.2848 41.0069C29.0635 40.8637 24.0253 36.0714 21.5338 33.6931C20.304 32.8032 19.1906 32.0968 18.405 31.8019C17.6818 31.5304 17.3933 30.5483 18.0669 29.9786L19.7432 28.5605C20.1837 28.188 20.8606 28.211 21.2675 28.6443C21.7435 29.0598 23.3062 30.7691 24.0282 31.5718C26.3125 33.7581 29.0958 36.4278 30.6075 37.896C31.8098 38.3206 34.6882 37.7899 35.3075 37.5776C35.3075 37.5776 31.0899 32.3426 30.227 31.6904C29.364 31.0382 28.5882 30.5358 27.9848 30.2942C26.7235 29.6296 27.2944 28.7622 27.7376 28.4117L29.5613 27.1141C30.0035 26.7994 30.6331 26.845 31.0163 27.2574C33.2848 30.0958 38.0621 35.985 39.0238 36.8344C40.2262 37.259 43.0317 36.799 43.7238 36.5158L35.0392 25.7219C33.6454 24.5418 32.3563 23.5754 31.4683 23.2059C30.7621 22.9122 30.4882 21.9106 31.2037 21.3595L33.0501 19.937C33.3627 19.7475 34.1078 19.5166 34.5861 20.1098L35.8541 21.6522L46.7997 35.1232Z" fill="var(--fill-0, #65676C)"/>
<path id="Vector_3" d="M18.9565 3.18507C16.9131 3.18507 14.6622 3.66621 12.2524 4.86246C7.20789 7.36661 4.56965 12.5277 3.7356 16.3232C2.56458 21.6522 3.23213 27.2574 5.15907 30.8006C6.51941 33.3019 7.62634 34.5971 9.82922 36.4368C13.1663 39.2238 15.7007 40.4586 20.0547 40.9928C21.4395 41.1627 23.6269 41.0973 23.6269 41.0973C24.0888 41.1109 24.5288 41.2912 24.8613 41.6029L27.1136 43.7152L29.6517 45.9339C30.0984 46.3245 29.8141 47.0445 29.213 47.0445H26.3661C25.9134 47.0445 25.5064 46.6552 25.3594 46.4605C24.4558 45.577 22.9787 44.2646 22.9787 44.2646L20.1518 44.1814L19.3123 47.3616C19.2131 47.7373 18.8646 48 18.4653 48H17.3374C16.7722 48 16.3555 47.4869 16.487 46.953L17.2406 43.8946C16.6578 43.7782 16.0349 43.6165 15.3982 43.3926L14.2242 47.384C14.1169 47.7486 13.7738 48 13.3834 48H12.1235C11.5481 48 11.1295 47.4694 11.2791 46.9299L12.617 42.103C9.9372 40.875 7.57926 38.7539 7.57926 38.7539C5.7793 37.3629 3.84333 34.66 3.10035 33.4824C1.21311 30.3045 0.631779 28.3901 0.145006 24.7501C-0.206032 22.125 0.145018 17.696 0.51195 15.7399C1.9125 10.0806 4.61498 5.18688 10.5425 2.1447C13.5493 0.601515 16.4434 0 18.9565 0C21.5152 0 24.8714 0.812805 27.373 2.09515C29.8525 3.36618 31.0795 4.52526 32.7483 6.15403C33.272 6.66656 34.6034 7.67194 35.739 7.59323C36.4586 7.68778 38.4754 7.61419 40.787 6.56344C41.983 6.14259 42.815 6.97021 43.0741 7.41114C43.3648 7.86818 43.681 8.98192 42.6195 9.78059L34.8549 15.6236C34.4974 16.2024 34.2339 16.74 34.132 17.1965C33.7688 18.6536 32.5579 18 32.0912 17.696C31.6245 17.392 30.5594 15.8435 30.5594 15.8435C30.1699 15.3726 30.2605 14.6748 30.7736 14.3173C31.3405 13.9223 33.2181 12.6227 34.6429 11.7541L35.9387 10.7789C34.9888 10.8508 32.5757 10.4951 30.5229 8.49728C30.5229 8.49728 27.9056 5.95334 25.8426 4.91202C23.3755 3.66685 20.9542 3.18507 18.9565 3.18507Z" fill="var(--fill-0, #65676C)"/>
</g>
</svg>
